#N canvas 284 7 1400 957 12;
#X obj 63 136 gsm;
#X msg 43 48 close;
#X msg 166 107 open 1;
#X msg 165 43 open 3;
#X obj 435 636 *~;
#X obj 459 608 line~;
#X obj 31 250 metro 100;
#X obj 33 199 bng 15 250 50 0 empty empty empty 0 -6 0 8 -262144 -1
-1;
#X obj 180 345 gsm_sort;
#X floatatom 264 307 5 0 0 0 - - -;
#X obj 183 380 gsm_sort;
#X floatatom 265 346 5 0 0 0 - - -;
#X obj 180 415 gsm_sort;
#X floatatom 268 382 5 0 0 0 - - -;
#X obj 185 452 gsm_sort;
#X floatatom 267 418 5 0 0 0 - - -;
#X obj 185 492 gsm_sort;
#X floatatom 267 458 5 0 0 0 - - -;
#X obj 468 365 dbtorms;
#X obj 467 399 dbtorms;
#X obj 466 434 dbtorms;
#X obj 465 464 dbtorms;
#X obj 461 504 dbtorms;
#X obj 559 375 *~ 0;
#X obj 559 408 *~ 0;
#X obj 558 438 *~ 0;
#X obj 557 468 *~ 0;
#X obj 557 497 *~ 0;
#X obj 453 533 loadbang;
#X obj 435 682 dac~;
#X obj 201 691 +~;
#N canvas 0 0 450 300 graph1 0;
#X array array1 100 float 0;
#X coords 0 1 100 -1 400 300 1;
#X restore 607 536 graph;
#X obj 252 822 tabwrite~ array1;
#X msg 245 765 bang;
#X floatatom 634 374 5 0 0 0 - - -;
#X floatatom 633 414 5 0 0 0 - - -;
#X floatatom 637 442 5 0 0 0 - - -;
#X floatatom 637 472 5 0 0 0 - - -;
#X floatatom 637 502 5 0 0 0 - - -;
#X obj 361 329 -;
#X obj 361 360 -;
#X obj 362 387 -;
#X obj 361 418 -;
#X obj 361 456 -;
#X floatatom 320 263 5 0 0 0 - - -;
#X msg 459 571 0.1 100;
#X obj 33 366 osc~;
#X obj 32 403 osc~;
#X obj 30 441 osc~;
#X obj 27 482 osc~;
#X obj 27 518 osc~;
#X obj 172 -10 loadbang;
#X text 760 149 gsm_sort param;
#X connect 1 0 0 0;
#X connect 2 0 0 0;
#X connect 3 0 0 0;
#X connect 4 0 29 0;
#X connect 4 0 29 1;
#X connect 5 0 4 1;
#X connect 6 0 8 0;
#X connect 6 0 10 0;
#X connect 6 0 12 0;
#X connect 6 0 14 0;
#X connect 6 0 16 0;
#X connect 6 0 44 0;
#X connect 7 0 6 0;
#X connect 8 0 39 1;
#X connect 8 1 46 0;
#X connect 9 0 8 1;
#X connect 10 0 40 1;
#X connect 10 1 47 0;
#X connect 11 0 10 1;
#X connect 12 0 41 1;
#X connect 12 1 48 0;
#X connect 13 0 12 1;
#X connect 14 0 42 1;
#X connect 14 1 49 0;
#X connect 15 0 14 1;
#X connect 16 0 43 1;
#X connect 16 1 50 0;
#X connect 17 0 16 1;
#X connect 18 0 23 1;
#X connect 18 0 34 0;
#X connect 19 0 24 1;
#X connect 19 0 35 0;
#X connect 20 0 25 1;
#X connect 20 0 36 0;
#X connect 20 0 37 0;
#X connect 21 0 26 1;
#X connect 21 0 38 0;
#X connect 22 0 27 1;
#X connect 23 0 30 0;
#X connect 24 0 30 1;
#X connect 25 0 30 1;
#X connect 26 0 30 1;
#X connect 27 0 30 1;
#X connect 28 0 45 0;
#X connect 30 0 32 0;
#X connect 30 0 4 0;
#X connect 33 0 32 0;
#X connect 39 0 18 0;
#X connect 40 0 19 0;
#X connect 41 0 20 0;
#X connect 42 0 21 0;
#X connect 43 0 22 0;
#X connect 44 0 39 0;
#X connect 44 0 40 0;
#X connect 44 0 41 0;
#X connect 44 0 42 0;
#X connect 44 0 43 0;
#X connect 45 0 5 0;
#X connect 46 0 23 0;
#X connect 47 0 24 0;
#X connect 48 0 25 0;
#X connect 49 0 26 0;
#X connect 50 0 27 0;
#X connect 51 0 3 0;
