#N canvas 570 0 805 884 12;
#X obj 87 377 soundfiler;
#X floatatom 87 423 5 0 0 0 - - -;
#N canvas 0 0 450 300 graph1 0;
#X array array99 20191 float 2;
#X coords 0 1 20191 -1 200 140 1;
#X restore 565 30 graph;
#X obj 584 269 tabplay~ array99;
#X msg 378 362 0.1 100;
#X obj 378 331 loadbang;
#X obj 378 391 line~;
#X obj 383 449 *~;
#X obj 383 486 hip~ 5;
#X obj 382 522 dac~;
#X obj 89 473 env~ 16384;
#X floatatom 89 515 5 0 0 0 - - -;
#X obj 238 418 tabread4~ array99;
#X obj 323 307 * 441;
#X obj 286 354 pack 0 100;
#X obj 285 387 line~;
#X floatatom 237 194 5 0 0 0 - - -;
#X obj 374 143 metro 50;
#X floatatom 382 239 5 0 0 0 - - -;
#X msg 313 70 bang;
#X msg 377 69 stop;
#X msg 455 182 0;
#X obj 291 237 +;
#X floatatom 379 276 5 0 0 0 - - -;
#X msg 87 329 read -resize loop.wav array99;
#X connect 0 0 1 0;
#X connect 4 0 6 0;
#X connect 5 0 4 0;
#X connect 6 0 7 1;
#X connect 7 0 8 0;
#X connect 8 0 9 0;
#X connect 8 0 9 1;
#X connect 10 0 11 0;
#X connect 12 0 10 0;
#X connect 12 0 7 0;
#X connect 13 0 14 0;
#X connect 14 0 15 0;
#X connect 15 0 12 0;
#X connect 16 0 22 0;
#X connect 17 0 16 0;
#X connect 18 0 22 1;
#X connect 18 0 23 0;
#X connect 19 0 17 0;
#X connect 20 0 17 0;
#X connect 21 0 18 0;
#X connect 22 0 18 0;
#X connect 23 0 13 0;
#X connect 24 0 0 0;
