#N canvas 845 310 636 420 12;
#X floatatom 72 42 5 0 0 0 - - -;
#X floatatom 72 157 5 0 0 0 - - -;
#X floatatom 158 43 5 0 0 0 - - -;
#X floatatom 245 41 5 0 0 0 - - -;
#X floatatom 332 39 5 0 0 0 - - -;
#X floatatom 419 36 5 0 0 0 - - -;
#X obj 72 97 expr ($f1-$f2) * ($f4-$f5) / ($f2-$f3) + $f4;
#X connect 0 0 6 0;
#X connect 2 0 6 1;
#X connect 3 0 6 2;
#X connect 4 0 6 3;
#X connect 5 0 6 4;
#X connect 6 0 1 0;
