#N canvas 12 46 1668 951 12;
#X obj 55 83 gsm;
#X obj 51 2 loadbang;
#X msg 54 41 open 3;
#X msg 137 42 close;
#X obj 363 137 gsm_sort;
#X obj 361 104 metro 50;
#X obj 334 53 bng 15 250 50 0 empty empty empty 0 -6 0 8 -262144 -1
-1;
#X floatatom 466 101 5 0 0 0 - - -;
#X floatatom 376 197 5 0 0 0 - - -;
#X obj 333 392 phasor~;
#X obj 396 485 lop~;
#X obj 367 736 dac~;
#X msg 424 308 clear;
#X obj 598 91 gsm_sort;
#X obj 585 47 metro 50;
#X obj 575 -10 bng 15 250 50 0 empty empty empty 0 -6 0 8 -262144 -1
-1;
#X floatatom 704 0 5 0 0 0 - - -;
#X floatatom 564 188 5 0 0 0 - - -;
#X obj 535 225 111 - \$1;
#X floatatom 602 316 5 0 0 0 - - -;
#X obj 330 236 -;
#X floatatom 316 218 5 0 0 0 - - -;
#X obj 299 190 t b;
#X floatatom 297 268 5 0 0 0 - - -;
#X obj 606 451 * 2;
#X floatatom 681 398 5 0 0 0 - - -;
#X floatatom 620 503 5 0 0 0 - - -;
#X floatatom 267 336 5 0 0 0 - - -;
#X obj 282 296 * 30;
#X obj 189 400 line 0 1000;
#X floatatom 240 454 5 0 0 0 - - -;
#X obj 524 392 osc~;
#X obj 491 503 *~;
#X obj 544 277 / 3;
#X obj 433 549 +~;
#X floatatom 443 445 5 0 0 0 - - -;
#X floatatom 457 358 5 0 0 0 - - -;
#X obj 566 142 gsm_avg;
#X floatatom 719 114 5 0 0 0 - - -;
#X obj 351 167 gsm_avg;
#X floatatom 462 136 5 0 0 0 - - -;
#X obj 353 342 osc~;
#X obj 343 553 +~;
#X obj 350 312 * 1.2;
#X obj 858 81 gsm_sort;
#X obj 843 36 metro 50;
#X obj 833 -20 bng 15 250 50 0 empty empty empty 0 -6 0 8 -262144 -1
-1;
#X floatatom 964 -6 5 0 0 0 - - -;
#X floatatom 825 179 5 0 0 0 - - -;
#X obj 826 132 gsm_avg;
#X floatatom 976 101 5 0 0 0 - - -;
#X obj 830 359 / 111;
#X obj 433 652 *~;
#X obj 300 623 +~;
#X floatatom 804 524 5 0 0 0 - - -;
#X obj 815 473 max 0;
#X obj 826 416 min 1;
#X obj 1128 84 gsm_sort;
#X obj 1113 39 metro 50;
#X obj 1103 -17 bng 15 250 50 0 empty empty empty 0 -6 0 8 -262144
-1 -1;
#X floatatom 1234 -3 5 0 0 0 - - -;
#X floatatom 1095 182 5 0 0 0 - - -;
#X obj 1096 135 gsm_avg;
#X floatatom 1246 106 5 0 0 0 - - -;
#X obj 990 343 -;
#X floatatom 1003 422 5 0 0 0 - - -;
#X obj 455 400 * 30;
#X obj 69 424 lop~ 200;
#X obj 348 687 +~;
#X obj 90 232 * 15;
#X obj 56 298 osc~;
#X connect 1 0 2 0;
#X connect 2 0 0 0;
#X connect 3 0 0 0;
#X connect 4 1 39 1;
#X connect 5 0 4 0;
#X connect 5 0 39 0;
#X connect 6 0 5 0;
#X connect 7 0 4 1;
#X connect 8 0 20 1;
#X connect 9 0 10 0;
#X connect 9 0 32 0;
#X connect 10 0 34 0;
#X connect 12 0 10 0;
#X connect 13 1 37 1;
#X connect 14 0 13 0;
#X connect 14 0 37 0;
#X connect 15 0 14 0;
#X connect 16 0 13 1;
#X connect 17 0 18 0;
#X connect 18 0 33 0;
#X connect 18 0 36 0;
#X connect 20 0 23 0;
#X connect 21 0 20 0;
#X connect 22 0 21 0;
#X connect 23 0 28 0;
#X connect 23 0 69 0;
#X connect 24 0 26 0;
#X connect 25 0 24 0;
#X connect 27 0 9 0;
#X connect 28 0 27 0;
#X connect 28 0 43 0;
#X connect 29 0 9 0;
#X connect 29 0 30 0;
#X connect 31 0 32 1;
#X connect 32 0 34 1;
#X connect 33 0 31 0;
#X connect 34 0 42 0;
#X connect 34 0 53 0;
#X connect 35 0 10 1;
#X connect 36 0 66 0;
#X connect 37 0 17 0;
#X connect 38 0 37 2;
#X connect 39 0 8 0;
#X connect 39 0 22 0;
#X connect 40 0 39 2;
#X connect 41 0 42 1;
#X connect 42 0 53 0;
#X connect 43 0 41 0;
#X connect 44 1 49 1;
#X connect 45 0 44 0;
#X connect 45 0 49 0;
#X connect 46 0 45 0;
#X connect 47 0 44 1;
#X connect 48 0 51 0;
#X connect 48 0 64 0;
#X connect 49 0 48 0;
#X connect 50 0 49 2;
#X connect 51 0 56 0;
#X connect 52 0 68 1;
#X connect 53 0 52 0;
#X connect 55 0 52 1;
#X connect 55 0 54 0;
#X connect 56 0 55 0;
#X connect 57 1 62 1;
#X connect 58 0 57 0;
#X connect 58 0 62 0;
#X connect 59 0 58 0;
#X connect 60 0 57 1;
#X connect 61 0 64 1;
#X connect 62 0 61 0;
#X connect 63 0 62 2;
#X connect 64 0 65 0;
#X connect 66 0 35 0;
#X connect 68 0 11 0;
#X connect 69 0 70 0;
#X connect 70 0 67 0;
